<svg width="1440" height="800" fill="none" xmlns="http://www.w3.org/2000/svg">
<rect width="1440" height="800" fill="url(#paint0_linear_10_72)"/>
<g clip-path="url(#clip0_10_72)">
<path fill-rule="evenodd" clip-rule="evenodd" d="M774 566C774.796 566 775.559 566.316 776.121 566.879C776.684 567.441 777 568.204 777 569C777 569.796 776.684 570.559 776.121 571.121C775.559 571.684 774.796 572 774 572C773.204 572 772.441 571.684 771.879 571.121C771.316 570.559 771 569.796 771 569C771 568.204 771.316 567.441 771.879 566.879C772.441 566.316 773.204 566 774 566ZM150.5 561C150.898 561 151.279 561.158 151.561 561.439C151.842 561.721 152 562.102 152 562.5C152 562.898 151.842 563.279 151.561 563.561C151.279 563.842 150.898 564 150.5 564C150.102 564 149.721 563.842 149.439 563.561C149.158 563.279 149 562.898 149 562.5C149 562.102 149.158 561.721 149.439 561.439C149.721 561.158 150.102 561 150.5 561ZM1025.5 561C1025.9 561 1026.28 561.158 1026.56 561.439C1026.84 561.721 1027 562.102 1027 562.5C1027 562.898 1026.84 563.279 1026.56 563.561C1026.28 563.842 1025.9 564 1025.5 564C1025.1 564 1024.72 563.842 1024.44 563.561C1024.16 563.279 1024 562.898 1024 562.5C1024 562.102 1024.16 561.721 1024.44 561.439C1024.72 561.158 1025.1 561 1025.5 561ZM502.5 558C502.898 558 503.279 558.158 503.561 558.439C503.842 558.721 504 559.102 504 559.5C504 559.898 503.842 560.279 503.561 560.561C503.279 560.842 502.898 561 502.5 561C502.102 561 501.721 560.842 501.439 560.561C501.158 560.279 501 559.898 501 559.5C501 559.102 501.158 558.721 501.439 558.439C501.721 558.158 502.102 558 502.5 558ZM735.5 551C735.898 551 736.279 551.158 736.561 551.439C736.842 551.721 737 552.102 737 552.5C737 552.898 736.842 553.279 736.561 553.561C736.279 553.842 735.898 554 735.5 554C735.102 554 734.721 553.842 734.439 553.561C734.158 553.279 734 552.898 734 552.5C734 552.102 734.158 551.721 734.439 551.439C734.721 551.158 735.102 551 735.5 551ZM178 545C178.796 545 179.559 545.316 180.121 545.879C180.684 546.441 181 547.204 181 548C181 548.796 180.684 549.559 180.121 550.121C179.559 550.684 178.796 551 178 551C177.204 551 176.441 550.684 175.879 550.121C175.316 549.559 175 548.796 175 548C175 547.204 175.316 546.441 175.879 545.879C176.441 545.316 177.204 545 178 545ZM1305.5 547C1305.9 547 1306.28 547.158 1306.56 547.439C1306.84 547.721 1307 548.102 1307 548.5C1307 548.898 1306.84 549.279 1306.56 549.561C1306.28 549.842 1305.9 550 1305.5 550C1305.1 550 1304.72 549.842 1304.44 549.561C1304.16 549.279 1304 548.898 1304 548.5C1304 548.102 1304.16 547.721 1304.44 547.439C1304.72 547.158 1305.1 547 1305.5 547ZM1351 537C1351.8 537 1352.56 537.316 1353.12 537.879C1353.68 538.441 1354 539.204 1354 540C1354 540.796 1353.68 541.559 1353.12 542.121C1352.56 542.684 1351.8 543 1351 543C1350.2 543 1349.44 542.684 1348.88 542.121C1348.32 541.559 1348 540.796 1348 540C1348 539.204 1348.32 538.441 1348.88 537.879C1349.44 537.316 1350.2 537 1351 537ZM785.5 534C785.898 534 786.279 534.158 786.561 534.439C786.842 534.721 787 535.102 787 535.5C787 535.898 786.842 536.279 786.561 536.561C786.279 536.842 785.898 537 785.5 537C785.102 537 784.721 536.842 784.439 536.561C784.158 536.279 784 535.898 784 535.5C784 535.102 784.158 534.721 784.439 534.439C784.721 534.158 785.102 534 785.5 534ZM1.5 519C1.89782 519 2.27936 519.158 2.56066 519.439C2.84196 519.721 3 520.102 3 520.5C3 520.898 2.84196 521.279 2.56066 521.561C2.27936 521.842 1.89782 522 1.5 522C1.10218 522 0.720644 521.842 0.43934 521.561C0.158035 521.279 0 520.898 0 520.5C0 520.102 0.158035 519.721 0.43934 519.439C0.720644 519.158 1.10218 519 1.5 519ZM280 510C280.796 510 281.559 510.316 282.121 510.879C282.684 511.441 283 512.204 283 513C283 513.796 282.684 514.559 282.121 515.121C281.559 515.684 280.796 516 280 516C279.204 516 278.441 515.684 277.879 515.121C277.316 514.559 277 513.796 277 513C277 512.204 277.316 511.441 277.879 510.879C278.441 510.316 279.204 510 280 510ZM487.5 480C487.898 480 488.279 480.158 488.561 480.439C488.842 480.721 489 481.102 489 481.5C489 481.898 488.842 482.279 488.561 482.561C488.279 482.842 487.898 483 487.5 483C487.102 483 486.721 482.842 486.439 482.561C486.158 482.279 486 481.898 486 481.5C486 481.102 486.158 480.721 486.439 480.439C486.721 480.158 487.102 480 487.5 480ZM537.5 463C537.898 463 538.279 463.158 538.561 463.439C538.842 463.721 539 464.102 539 464.5C539 464.898 538.842 465.279 538.561 465.561C538.279 465.842 537.898 466 537.5 466C537.102 466 536.721 465.842 536.439 465.561C536.158 465.279 536 464.898 536 464.5C536 464.102 536.158 463.721 536.439 463.439C536.721 463.158 537.102 463 537.5 463ZM770.5 455C770.898 455 771.279 455.158 771.561 455.439C771.842 455.721 772 456.102 772 456.5C772 456.898 771.842 457.279 771.561 457.561C771.279 457.842 770.898 458 770.5 458C770.102 458 769.721 457.842 769.439 457.561C769.158 457.279 769 456.898 769 456.5C769 456.102 769.158 455.721 769.439 455.439C769.721 455.158 770.102 455 770.5 455ZM1235.5 433C1235.9 433 1236.28 433.158 1236.56 433.439C1236.84 433.721 1237 434.102 1237 434.5C1237 434.898 1236.84 435.279 1236.56 435.561C1236.28 435.842 1235.9 436 1235.5 436C1235.1 436 1234.72 435.842 1234.44 435.561C1234.16 435.279 1234 434.898 1234 434.5C1234 434.102 1234.16 433.721 1234.44 433.439C1234.72 433.158 1235.1 433 1235.5 433ZM536.5 427C536.898 427 537.279 427.158 537.561 427.439C537.842 427.721 538 428.102 538 428.5C538 428.898 537.842 429.279 537.561 429.561C537.279 429.842 536.898 430 536.5 430C536.102 430 535.721 429.842 535.439 429.561C535.158 429.279 535 428.898 535 428.5C535 428.102 535.158 427.721 535.439 427.439C535.721 427.158 536.102 427 536.5 427ZM71.5 405C71.8978 405 72.2794 405.158 72.5607 405.439C72.842 405.721 73 406.102 73 406.5C73 406.898 72.842 407.279 72.5607 407.561C72.2794 407.842 71.8978 408 71.5 408C71.1022 408 70.7206 407.842 70.4393 407.561C70.158 407.279 70 406.898 70 406.5C70 406.102 70.158 405.721 70.4393 405.439C70.7206 405.158 71.1022 405 71.5 405ZM1236.5 397C1236.9 397 1237.28 397.158 1237.56 397.439C1237.84 397.721 1238 398.102 1238 398.5C1238 398.898 1237.84 399.279 1237.56 399.561C1237.28 399.842 1236.9 400 1236.5 400C1236.1 400 1235.72 399.842 1235.44 399.561C1235.16 399.279 1235 398.898 1235 398.5C1235 398.102 1235.16 397.721 1235.44 397.439C1235.72 397.158 1236.1 397 1236.5 397ZM1186.5 380C1186.9 380 1187.28 380.158 1187.56 380.439C1187.84 380.721 1188 381.102 1188 381.5C1188 381.898 1187.84 382.279 1187.56 382.561C1187.28 382.842 1186.9 383 1186.5 383C1186.1 383 1185.72 382.842 1185.44 382.561C1185.16 382.279 1185 381.898 1185 381.5C1185 381.102 1185.16 380.721 1185.44 380.439C1185.72 380.158 1186.1 380 1186.5 380ZM250 348C250.796 348 251.559 348.316 252.121 348.879C252.684 349.441 253 350.204 253 351C253 351.796 252.684 352.559 252.121 353.121C251.559 353.684 250.796 354 250 354C249.204 354 248.441 353.684 247.879 353.121C247.316 352.559 247 351.796 247 351C247 350.204 247.316 349.441 247.879 348.879C248.441 348.316 249.204 348 250 348ZM700.5 341C700.898 341 701.279 341.158 701.561 341.439C701.842 341.721 702 342.102 702 342.5C702 342.898 701.842 343.279 701.561 343.561C701.279 343.842 700.898 344 700.5 344C700.102 344 699.721 343.842 699.439 343.561C699.158 343.279 699 342.898 699 342.5C699 342.102 699.158 341.721 699.439 341.439C699.721 341.158 700.102 341 700.5 341ZM86.5 326C86.8978 326 87.2794 326.158 87.5607 326.439C87.842 326.721 88 327.102 88 327.5C88 327.898 87.842 328.279 87.5607 328.561C87.2794 328.842 86.8978 329 86.5 329C86.1022 329 85.7206 328.842 85.4393 328.561C85.158 328.279 85 327.898 85 327.5C85 327.102 85.158 326.721 85.4393 326.439C85.7206 326.158 86.1022 326 86.5 326ZM606.5 313C606.898 313 607.279 313.158 607.561 313.439C607.842 313.721 608 314.102 608 314.5C608 314.898 607.842 315.279 607.561 315.561C607.279 315.842 606.898 316 606.5 316C606.102 316 605.721 315.842 605.439 315.561C605.158 315.279 605 314.898 605 314.5C605 314.102 605.158 313.721 605.439 313.439C605.721 313.158 606.102 313 606.5 313ZM36.5 309C36.8978 309 37.2794 309.158 37.5607 309.439C37.842 309.721 38 310.102 38 310.5C38 310.898 37.842 311.279 37.5607 311.561C37.2794 311.842 36.8978 312 36.5 312C36.1022 312 35.7206 311.842 35.4393 311.561C35.158 311.279 35 310.898 35 310.5C35 310.102 35.158 309.721 35.4393 309.439C35.7206 309.158 36.1022 309 36.5 309ZM1206 302C1206.8 302 1207.56 302.316 1208.12 302.879C1208.68 303.441 1209 304.204 1209 305C1209 305.796 1208.68 306.559 1208.12 307.121C1207.56 307.684 1206.8 308 1206 308C1205.2 308 1204.44 307.684 1203.88 307.121C1203.32 306.559 1203 305.796 1203 305C1203 304.204 1203.32 303.441 1203.88 302.879C1204.44 302.316 1205.2 302 1206 302ZM1201.5 302C1201.9 302 1202.28 302.158 1202.56 302.439C1202.84 302.721 1203 303.102 1203 303.5C1203 303.898 1202.84 304.279 1202.56 304.561C1202.28 304.842 1201.9 305 1201.5 305C1201.1 305 1200.72 304.842 1200.44 304.561C1200.16 304.279 1200 303.898 1200 303.5C1200 303.102 1200.16 302.721 1200.44 302.439C1200.72 302.158 1201.1 302 1201.5 302ZM326.5 299C326.898 299 327.279 299.158 327.561 299.439C327.842 299.721 328 300.102 328 300.5C328 300.898 327.842 301.279 327.561 301.561C327.279 301.842 326.898 302 326.5 302C326.102 302 325.721 301.842 325.439 301.561C325.158 301.279 325 300.898 325 300.5C325 300.102 325.158 299.721 325.439 299.439C325.721 299.158 326.102 299 326.5 299ZM849.5 299C849.898 299 850.279 299.158 850.561 299.439C850.842 299.721 851 300.102 851 300.5C851 300.898 850.842 301.279 850.561 301.561C850.279 301.842 849.898 302 849.5 302C849.102 302 848.721 301.842 848.439 301.561C848.158 301.279 848 300.898 848 300.5C848 300.102 848.158 299.721 848.439 299.439C848.721 299.158 849.102 299 849.5 299ZM457.5 265C457.898 265 458.279 265.158 458.561 265.439C458.842 265.721 459 266.102 459 266.5C459 266.898 458.842 267.279 458.561 267.561C458.279 267.842 457.898 268 457.5 268C457.102 268 456.721 267.842 456.439 267.561C456.158 267.279 456 266.898 456 266.5C456 266.102 456.158 265.721 456.439 265.439C456.721 265.158 457.102 265 457.5 265ZM1113.5 265C1113.9 265 1114.28 265.158 1114.56 265.439C1114.84 265.721 1115 266.102 1115 266.5C1115 266.898 1114.84 267.279 1114.56 267.561C1114.28 267.842 1113.9 268 1113.5 268C1113.1 268 1112.72 267.842 1112.44 267.561C1112.16 267.279 1112 266.898 1112 266.5C1112 266.102 1112.16 265.721 1112.44 265.439C1112.72 265.158 1113.1 265 1113.5 265ZM105.5 262C105.898 262 106.279 262.158 106.561 262.439C106.842 262.721 107 263.102 107 263.5C107 263.898 106.842 264.279 106.561 264.561C106.279 264.842 105.898 265 105.5 265C105.102 265 104.721 264.842 104.439 264.561C104.158 264.279 104 263.898 104 263.5C104 263.102 104.158 262.721 104.439 262.439C104.721 262.158 105.102 262 105.5 262ZM1403.5 255C1403.9 255 1404.28 255.158 1404.56 255.439C1404.84 255.721 1405 256.102 1405 256.5C1405 256.898 1404.84 257.279 1404.56 257.561C1404.28 257.842 1403.9 258 1403.5 258C1403.1 258 1402.72 257.842 1402.44 257.561C1402.16 257.279 1402 256.898 1402 256.5C1402 256.102 1402.16 255.721 1402.44 255.439C1402.72 255.158 1403.1 255 1403.5 255ZM833.5 251C833.898 251 834.279 251.158 834.561 251.439C834.842 251.721 835 252.102 835 252.5C835 252.898 834.842 253.279 834.561 253.561C834.279 253.842 833.898 254 833.5 254C833.102 254 832.721 253.842 832.439 253.561C832.158 253.279 832 252.898 832 252.5C832 252.102 832.158 251.721 832.439 251.439C832.721 251.158 833.102 251 833.5 251ZM1353.5 238C1353.9 238 1354.28 238.158 1354.56 238.439C1354.84 238.721 1355 239.102 1355 239.5C1355 239.898 1354.84 240.279 1354.56 240.561C1354.28 240.842 1353.9 241 1353.5 241C1353.1 241 1352.72 240.842 1352.44 240.561C1352.16 240.279 1352 239.898 1352 239.5C1352 239.102 1352.16 238.721 1352.44 238.439C1352.72 238.158 1353.1 238 1353.5 238ZM1208 229C1208.8 229 1209.56 229.316 1210.12 229.879C1210.68 230.441 1211 231.204 1211 232C1211 232.796 1210.68 233.559 1210.12 234.121C1209.56 234.684 1208.8 235 1208 235C1207.2 235 1206.44 234.684 1205.88 234.121C1205.32 233.559 1205 232.796 1205 232C1205 231.204 1205.32 230.441 1205.88 229.879C1206.44 229.316 1207.2 229 1208 229ZM606.5 223C606.898 223 607.279 223.158 607.561 223.439C607.842 223.721 608 224.102 608 224.5C608 224.898 607.842 225.279 607.561 225.561C607.279 225.842 606.898 226 606.5 226C606.102 226 605.721 225.842 605.439 225.561C605.158 225.279 605 224.898 605 224.5C605 224.102 605.158 223.721 605.439 223.439C605.721 223.158 606.102 223 606.5 223ZM1106 194C1106.39 194 1106.78 194.078 1107.15 194.228C1107.51 194.379 1107.84 194.6 1108.12 194.879C1108.4 195.157 1108.62 195.488 1108.77 195.852C1108.92 196.216 1109 196.606 1109 197C1109 197.394 1108.92 197.784 1108.77 198.148C1108.62 198.512 1108.4 198.843 1108.12 199.121C1107.84 199.4 1107.51 199.621 1107.15 199.772C1106.78 199.922 1106.39 200 1106 200C1105.2 200 1104.44 199.684 1103.88 199.121C1103.32 198.559 1103 197.796 1103 197C1103 196.204 1103.32 195.441 1103.88 194.879C1104.44 194.316 1105.2 194 1106 194ZM120.5 184C120.898 184 121.279 184.158 121.561 184.439C121.842 184.721 122 185.102 122 185.5C122 185.898 121.842 186.279 121.561 186.561C121.279 186.842 120.898 187 120.5 187C120.102 187 119.721 186.842 119.439 186.561C119.158 186.279 119 185.898 119 185.5C119 185.102 119.158 184.721 119.439 184.439C119.721 184.158 120.102 184 120.5 184ZM70.5 167C70.8978 167 71.2794 167.158 71.5607 167.439C71.842 167.721 72 168.102 72 168.5C72 168.898 71.842 169.279 71.5607 169.561C71.2794 169.842 70.8978 170 70.5 170C70.1022 170 69.7206 169.842 69.4393 169.561C69.158 169.279 69 168.898 69 168.5C69 168.102 69.158 167.721 69.4393 167.439C69.7206 167.158 70.1022 167 70.5 167ZM1368.5 159C1368.9 159 1369.28 159.158 1369.56 159.439C1369.84 159.721 1370 160.102 1370 160.5C1370 160.898 1369.84 161.279 1369.56 161.561C1369.28 161.842 1368.9 162 1368.5 162C1368.1 162 1367.72 161.842 1367.44 161.561C1367.16 161.279 1367 160.898 1367 160.5C1367 160.102 1367.16 159.721 1367.44 159.439C1367.72 159.158 1368.1 159 1368.5 159ZM903.5 137C903.898 137 904.279 137.158 904.561 137.439C904.842 137.721 905 138.102 905 138.5C905 138.898 904.842 139.279 904.561 139.561C904.279 139.842 903.898 140 903.5 140C903.102 140 902.721 139.842 902.439 139.561C902.158 139.279 902 138.898 902 138.5C902 138.102 902.158 137.721 902.439 137.439C902.721 137.158 903.102 137 903.5 137ZM71.5 131C71.8978 131 72.2794 131.158 72.5607 131.439C72.842 131.721 73 132.102 73 132.5C73 132.898 72.842 133.279 72.5607 133.561C72.2794 133.842 71.8978 134 71.5 134C71.1022 134 70.7206 133.842 70.4393 133.561C70.158 133.279 70 132.898 70 132.5C70 132.102 70.158 131.721 70.4393 131.439C70.7206 131.158 71.1022 131 71.5 131ZM105 113C105.796 113 106.559 113.316 107.121 113.879C107.684 114.441 108 115.204 108 116C108 116.796 107.684 117.559 107.121 118.121C106.559 118.684 105.796 119 105 119C104.204 119 103.441 118.684 102.879 118.121C102.316 117.559 102 116.796 102 116C102 115.204 102.316 114.441 102.879 113.879C103.441 113.316 104.204 113 105 113ZM536.5 109C536.898 109 537.279 109.158 537.561 109.439C537.842 109.721 538 110.102 538 110.5C538 110.898 537.842 111.279 537.561 111.561C537.279 111.842 536.898 112 536.5 112C536.102 112 535.721 111.842 535.439 111.561C535.158 111.279 535 110.898 535 110.5C535 110.102 535.158 109.721 535.439 109.439C535.721 109.158 536.102 109 536.5 109ZM902.5 101C902.898 101 903.279 101.158 903.561 101.439C903.842 101.721 904 102.102 904 102.5C904 102.898 903.842 103.279 903.561 103.561C903.279 103.842 902.898 104 902.5 104C902.102 104 901.721 103.842 901.439 103.561C901.158 103.279 901 102.898 901 102.5C901 102.102 901.158 101.721 901.439 101.439C901.721 101.158 902.102 101 902.5 101ZM952.5 84C952.898 84 953.279 84.158 953.561 84.4393C953.842 84.7206 954 85.1022 954 85.5C954 85.8978 953.842 86.2794 953.561 86.5607C953.279 86.842 952.898 87 952.5 87C952.102 87 951.721 86.842 951.439 86.5607C951.158 86.2794 951 85.8978 951 85.5C951 85.1022 951.158 84.7206 951.439 84.4393C951.721 84.158 952.102 84 952.5 84ZM1438.5 45C1438.9 45 1439.28 45.158 1439.56 45.4393C1439.84 45.7206 1440 46.1022 1440 46.5C1440 46.8978 1439.84 47.2794 1439.56 47.5607C1439.28 47.842 1438.9 48 1438.5 48C1438.1 48 1437.72 47.842 1437.44 47.5607C1437.16 47.2794 1437 46.8978 1437 46.5C1437 46.1022 1437.16 45.7206 1437.44 45.4393C1437.72 45.158 1438.1 45 1438.5 45ZM1136 32C1136.8 32 1137.56 32.3161 1138.12 32.8787C1138.68 33.4413 1139 34.2044 1139 35C1139 35.7957 1138.68 36.5587 1138.12 37.1213C1137.56 37.6839 1136.8 38 1136 38C1135.2 38 1134.44 37.6839 1133.88 37.1213C1133.32 36.5587 1133 35.7957 1133 35C1133 34.2044 1133.32 33.4413 1133.88 32.8787C1134.44 32.3161 1135.2 32 1136 32ZM521.5 30C521.898 30 522.279 30.158 522.561 30.4393C522.842 30.7206 523 31.1022 523 31.5C523 31.8978 522.842 32.2794 522.561 32.5607C522.279 32.842 521.898 33 521.5 33C521.102 33 520.721 32.842 520.439 32.5607C520.158 32.2794 520 31.8978 520 31.5C520 31.1022 520.158 30.7206 520.439 30.4393C520.721 30.158 521.102 30 521.5 30ZM412 26C412.796 26 413.559 26.3161 414.121 26.8787C414.684 27.4413 415 28.2044 415 29C415 29.7956 414.684 30.5587 414.121 31.1213C413.559 31.6839 412.796 32 412 32C411.204 32 410.441 31.6839 409.879 31.1213C409.316 30.5587 409 29.7956 409 29C409 28.2044 409.316 27.4413 409.879 26.8787C410.441 26.3161 411.204 26 412 26ZM1.5 17C1.89782 17 2.27936 17.158 2.56066 17.4393C2.84196 17.7206 3 18.1022 3 18.5C3 18.8978 2.84196 19.2794 2.56066 19.5607C2.27936 19.842 1.89782 20 1.5 20C1.10218 20 0.720644 19.842 0.43934 19.5607C0.158035 19.2794 0 18.8978 0 18.5C0 18.1022 0.158035 17.7206 0.43934 17.4393C0.720644 17.158 1.10218 17 1.5 17ZM571.5 13C571.898 13 572.279 13.158 572.561 13.4393C572.842 13.7206 573 14.1022 573 14.5C573 14.8978 572.842 15.2794 572.561 15.5607C572.279 15.842 571.898 16 571.5 16C571.102 16 570.721 15.842 570.439 15.5607C570.158 15.2794 570 14.8978 570 14.5C570 14.1022 570.158 13.7206 570.439 13.4393C570.721 13.158 571.102 13 571.5 13ZM937.5 6C937.898 6 938.279 6.15804 938.561 6.43934C938.842 6.72064 939 7.10218 939 7.5C939 7.89782 938.842 8.27936 938.561 8.56066C938.279 8.84196 937.898 9 937.5 9C937.102 9 936.721 8.84196 936.439 8.56066C936.158 8.27936 936 7.89782 936 7.5C936 7.10218 936.158 6.72064 936.439 6.43934C936.721 6.15804 937.102 6 937.5 6ZM281.5 3C281.898 3 282.279 3.15804 282.561 3.43934C282.842 3.72064 283 4.10218 283 4.5C283 4.89782 282.842 5.27936 282.561 5.56066C282.279 5.84196 281.898 6 281.5 6C281.102 6 280.721 5.84196 280.439 5.56066C280.158 5.27936 280 4.89782 280 4.5C280 4.10218 280.158 3.72064 280.439 3.43934C280.721 3.15804 281.102 3 281.5 3ZM1289.5 3C1289.9 3 1290.28 3.15804 1290.56 3.43934C1290.84 3.72064 1291 4.10218 1291 4.5C1291 4.89782 1290.84 5.27936 1290.56 5.56066C1290.28 5.84196 1289.9 6 1289.5 6C1289.1 6 1288.72 5.84196 1288.44 5.56066C1288.16 5.27936 1288 4.89782 1288 4.5C1288 4.10218 1288.16 3.72064 1288.44 3.43934C1288.72 3.15804 1289.1 3 1289.5 3Z" fill="#46485B"/>
</g>
<g clip-path="url(#clip1_10_72)">
<mask id="mask0_10_72" style="mask-type:luminance" maskUnits="userSpaceOnUse" x="0" y="603" width="1440" height="197">
<path d="M0 603H1440V800H0V603Z" fill="white"/>
</mask>
<g mask="url(#mask0_10_72)">
<path fill-rule="evenodd" clip-rule="evenodd" d="M1440 653.205L1088.5 603L949.669 653.205L878 628.102L556 603L398.525 653.205L302.718 628.102L251.39 644.863L45.704 603L0 620.701V763H1440V653.205Z" fill="#211A29"/>
<path fill-rule="evenodd" clip-rule="evenodd" d="M1394.3 604L1488.94 673.336L1538.99 623.887L1394.3 604ZM1137.28 645.576L1188.61 673.336L1269.21 667.91L1137.28 645.576ZM884 604L1041.47 687.151L1122.4 661.089L884 604ZM351.496 604L490.331 687.151L539.652 658.625L351.496 604Z" fill="#1A1823"/>
<path fill-rule="evenodd" clip-rule="evenodd" d="M0 687.151L351.496 604L490.331 687.151L562 645.576L884 604L1041.47 687.151L1137.28 645.576L1188.61 673.336L1394.3 604L1440 633.317V869H0V687.151Z" fill="#2F2439"/>
</g>
</g>
<defs>
<linearGradient id="paint0_linear_10_72" x1="720" y1="0" x2="720" y2="588.5" gradientUnits="userSpaceOnUse">
<stop stop-color="#1E1E28"/>
<stop offset="1" stop-color="#241E2C"/>
<stop offset="1" stop-color="#251D2C"/>
</linearGradient>
<clipPath id="clip0_10_72">
<rect width="1440" height="569" fill="white" transform="translate(0 3)"/>
</clipPath>
<clipPath id="clip1_10_72">
<rect width="1440" height="197" fill="white" transform="translate(0 603)"/>
</clipPath>
</defs>
</svg>
