<svg width="148" height="150" fill="none" xmlns="http://www.w3.org/2000/svg">
<path d="M0 142C0 146.418 3.58172 150 8 150H140C144.418 150 148 146.418 148 142V63H0V142Z" fill="#1A1A24"/>
<path d="M0 132C0 136.418 3.58172 140 8 140H140C144.418 140 148 136.418 148 132V77C144.686 77 142 74.3137 142 71H6C6 74.3137 3.31371 77 0 77V132Z" fill="#34364F"/>
<path d="M0 8C0 3.58173 3.58173 0 8 0H140C144.418 0 148 3.58173 148 8V65C144.686 65 142 67.6863 142 71H6C6 67.6863 3.31372 65 0 65V8Z" fill="#2C2C44"/>
</svg>
